<?xml version="1.0" standalone="no"?><!DOCTYPE svg PUBLIC "-//W3C//DTD SVG 1.1//EN" "http://www.w3.org/Graphics/SVG/1.1/DTD/svg11.dtd"><svg t="1678102366337" class="icon" viewBox="0 0 1024 1024" version="1.1" xmlns="http://www.w3.org/2000/svg" p-id="16331" xmlns:xlink="http://www.w3.org/1999/xlink" width="200" height="200"><path d="M142.086151 379.774701c214.212846 86.87521 261.022319-209.849251 427.63231-221.353274 148.36223-10.313952 331.63322 203.898894 387.169884 155.899349 30.941855-26.974951-32.131927-162.643087-192.791561-257.848796 0 0 90.445424 65.453925 65.453925 76.164568-44.03264 18.644451-156.69273-149.155611-361.385004-131.304541-161.453015 13.884166-242.377868 245.551392-277.286628 226.51025-26.18157-14.280856 24.198118-124.957493 24.198117-124.957493-55.933354 49.189616-191.60149 228.493702-72.991043 276.889937z" fill="#FFAAAA" p-id="16332"></path><path d="M52.830798 709.424469c154.312587 267.369367 363.765147 346.310767 581.548207 121.78397 0 0 22.214665 124.164112-108.296494 192.791561 433.582667-29.355094 191.99818-445.483381 191.99818-445.483381-218.17975 224.526797-432.789286 325.682863-665.249893 130.90785z" fill="#AAAAFF" p-id="16333"></path><path d="M598.676864 255.213898C472.5293 265.924541 428.496659 502.352052 194.845981 469.823434-2.705865 442.451793 74.648773 266.717922 74.648773 266.717922-45.151744 532.897217 51.244037 702.284041 256.333002 708.234398c249.518296 7.537119 349.484291-213.816155 437.549572-211.039322 170.180205 5.156976 180.890847 377.649313 125.750874 434.376048C1255.199567 572.962953 797.815473 238.156209 598.676864 255.213898z" fill="#AAFFAA" p-id="16334"></path></svg>